<svg width="29" height="20" viewBox="0 0 29 20" fill="none" xmlns="http://www.w3.org/2000/svg">
<path d="M17.6664 0.480957C18.057 0.090332 18.6901 0.090332 19.0807 0.480957L27.1855 8.58594L27.2124 8.55908L28.6266 9.97314L28.5997 10L28.6266 10.0269L27.2124 11.4414L27.1854 11.4146L19.0807 19.519C18.6902 19.9097 18.057 19.9097 17.6665 19.519C17.4142 19.2666 17.3248 18.9131 17.3984 18.5894C17.4388 18.4121 17.5282 18.2432 17.6665 18.105L25.7712 10L17.6664 1.89502C17.2759 1.50488 17.2759 0.871582 17.6664 0.480957Z" fill="url(#paint0_linear_182_2254)"/>
<path d="M0.292847 0.292969C0.683472 -0.0976562 1.31653 -0.0976562 1.70715 0.292969L9.81201 8.39795L9.83887 8.37109L11.2531 9.78516L11.2262 9.81201L11.2531 9.83887L9.83887 11.2534L9.81189 11.2266L1.70715 19.3311C1.31665 19.7217 0.683472 19.7217 0.292969 19.3311C0.0406494 19.0786 -0.0487061 18.7251 0.0249023 18.4014C0.0653076 18.2241 0.154663 18.0552 0.292969 17.917L8.39771 9.81201L0.292847 1.70703C-0.0976562 1.31689 -0.0976562 0.683594 0.292847 0.292969Z" fill="url(#paint1_linear_182_2254)"/>
<defs>
<linearGradient id="paint0_linear_182_2254" x1="34.9162" y1="189.376" x2="-75.4332" y2="146.511" gradientUnits="userSpaceOnUse">
<stop offset="0.437361"/>
<stop offset="0.708101" stop-color="#49227C"/>
<stop offset="0.916434" stop-color="#9747FF"/>
</linearGradient>
<linearGradient id="paint1_linear_182_2254" x1="17.5426" y1="189.188" x2="-92.8068" y2="146.323" gradientUnits="userSpaceOnUse">
<stop offset="0.437361"/>
<stop offset="0.708101" stop-color="#49227C"/>
<stop offset="0.916434" stop-color="#9747FF"/>
</linearGradient>
</defs>
</svg>
